<svg version="1.1" xmlns="http://www.w3.org/2000/svg" xmlns:xlink="http://www.w3.org/1999/xlink" width="130.0809" height="178.23213" viewBox="0,0,130.0809,178.23213"><defs><radialGradient cx="242.48051" cy="199.00043" r="72.12803" gradientUnits="userSpaceOnUse" id="color-1"><stop offset="0" stop-color="#81c6e3"/><stop offset="1" stop-color="#81c6e3" stop-opacity="0"/></radialGradient><radialGradient cx="242.4285" cy="199.09039" r="72.12803" gradientUnits="userSpaceOnUse" id="color-2"><stop offset="0" stop-color="#0089e3" stop-opacity="0"/><stop offset="1" stop-color="#0089e3"/></radialGradient></defs><g transform="translate(-177.27101,-105.73118)"><g data-paper-data="{&quot;isPaintingLayer&quot;:true}" fill-rule="nonzero" stroke-linejoin="miter" stroke-dasharray="" stroke-dashoffset="0" style="mix-blend-mode: normal"><path d="M269.22741,271.75304c3.52009,-0.90496 7.2185,-0.58592 11.09522,0.95714c4.30618,1.79912 5.68528,4.3678 4.21326,7.89104c-1.45547,3.30024 -4.43707,4.20028 -8.89027,2.56964c-3.53977,-1.24901 -6.36095,-3.11741 -8.38758,-5.42019l-11.32288,-29.94332l1.85009,-0.75971z" data-paper-data="{&quot;index&quot;:null}" fill="#000000" stroke="none" stroke-width="1" stroke-linecap="butt" stroke-miterlimit="10"/><path d="M219.58783,246.7143l1.85009,0.75971l-11.32288,29.94332c-2.02663,2.30277 -4.84782,4.17117 -8.38758,5.42019c-4.4532,1.63065 -7.4348,0.7306 -8.89027,-2.56964c-1.47201,-3.52324 -0.09291,-6.09191 4.21327,-7.89103c3.87672,-1.54306 7.57513,-1.86211 11.09522,-0.95715z" data-paper-data="{&quot;index&quot;:null}" fill="#000000" stroke="none" stroke-width="1" stroke-linecap="butt" stroke-miterlimit="10"/><path d="M189.25734,159.54013l15.42789,23.61789l-1.82664,1.27736l-16.98053,-22.53213c-1.01359,0.30082 -1.97226,0.29124 -3.05865,0.09898c-1.79852,-0.23824 -3.24067,-1.13368 -4.32642,-2.68632c-1.08575,-1.55264 -1.43191,-3.21449 -1.10234,-5.07689c0.32957,-1.86239 1.19754,-3.14934 2.75018,-4.23508c1.55264,-1.08575 3.21449,-1.43192 5.07689,-1.10235c1.86239,0.32957 3.14934,1.19755 4.23509,2.75019c1.08575,1.55264 1.43192,3.21449 1.10235,5.07689c-0.19225,1.0864 -0.60357,2.05399 -1.29782,2.81147z" data-paper-data="{&quot;index&quot;:null}" fill="#000000" stroke="none" stroke-width="1" stroke-linecap="butt" stroke-miterlimit="10"/><path d="M294.06776,167.06199c-0.32957,-1.86239 0.01659,-3.52425 1.10234,-5.07689c1.08575,-1.55264 2.37269,-2.42061 4.23509,-2.75018c1.86239,-0.32957 3.52425,0.01659 5.07689,1.10234c1.55264,1.08575 2.42061,2.37269 2.75018,4.23509c0.32957,1.86239 -0.01659,3.52425 -1.10234,5.07689c-1.08575,1.55264 -2.52789,2.44808 -4.32642,2.68631c-1.0864,0.19225 -2.04506,0.20183 -3.05865,-0.09898l-16.98054,22.53213l-1.82664,-1.27736l15.4279,-23.61788c-0.69425,-0.75747 -1.10557,-1.72507 -1.29781,-2.81147z" fill="#000000" stroke="none" stroke-width="1" stroke-linecap="butt" stroke-miterlimit="10"/><path d="M221.10242,116.26137l-3.51405,-8.43373l13.3534,6.6767c8.2763,6.09899 16.82388,12.29918 23.19275,20.3815c7.83774,9.95601 14.24456,21.62548 18.97588,33.7349c5.06726,12.56344 9.82107,25.83391 10.19075,39.70879c0.26707,9.20963 -2.86466,18.94355 -8.43373,26.35539c-5.42007,7.21224 -13.86364,12.45942 -22.48994,15.11043c-8.7514,2.68755 -18.93231,3.39457 -27.40961,0c-9.44999,-3.75582 -18.14657,-10.80782 -22.48994,-19.67869c-5.28935,-10.39457 -7.2024,-23.33752 -4.56827,-34.43771c2.75783,-11.60902 14.08713,-19.45239 19.32729,-30.22085c3.82188,-7.79557 6.76947,-16.14918 7.37951,-24.59837c0.71265,-8.34095 -2.37831,-21.82789 -2.81124,-23.54415z" fill="url(#color-1)" stroke="#2b68a8" stroke-width="2" stroke-linecap="round" stroke-miterlimit="10"/><path d="M221.05041,116.34992l-3.51405,-8.43373l13.3534,6.6767c8.2763,6.09899 16.82388,12.29918 23.19275,20.3815c7.83774,9.95601 14.24456,21.62548 18.97588,33.7349c5.06726,12.56344 9.82107,25.83391 10.19075,39.70879c0.26707,9.20963 -2.86466,18.94355 -8.43373,26.35539c-5.42007,7.21224 -13.86364,12.45942 -22.48994,15.11043c-8.7514,2.68755 -18.93231,3.39457 -27.40961,0c-9.44999,-3.75582 -18.14657,-10.80782 -22.48994,-19.67869c-5.28935,-10.39457 -7.2024,-23.33752 -4.56827,-34.43771c2.75783,-11.60902 14.08713,-19.45239 19.32729,-30.22085c3.82188,-7.79557 6.76947,-16.14918 7.37951,-24.59837c0.71265,-8.34095 -2.37831,-21.82789 -2.81124,-23.54415z" fill="url(#color-2)" stroke="#2b68a8" stroke-width="2" stroke-linecap="round" stroke-miterlimit="10"/><path d="M221.64123,200.95304c4.92835,3.15091 11.23017,4.44359 18.90546,3.95884c8.16005,-0.56555 14.30029,-3.07012 18.5015,-7.5945c2.10061,4.12042 3.55487,7.83688 4.3628,11.39175c-11.87651,0.48476 -23.75302,0.96951 -35.54873,1.45427c-2.42378,0.08079 -4.84755,0.24238 -7.19054,0.32317c-0.24238,-2.98933 0.08079,-6.22103 0.96951,-9.53352z" data-paper-data="{&quot;index&quot;:null}" fill="#ffffff" stroke="none" stroke-width="1" stroke-linecap="butt" stroke-miterlimit="10"/><path d="M263.3302,208.62834c1.21189,5.4939 0.80793,10.17986 -1.29268,14.1387c-3.58454,-1.43381 -6.85657,0.04835 -9.62118,0.2049c-1.90185,0.10769 -3.51036,-1.52911 -5.02982,-0.6688c-0.68763,0.38934 -0.62941,2.77457 -1.23941,3.31805c-0.49899,0.44458 -1.67902,-0.9781 -2.12633,-0.43037c-4.98836,-1.72864 -10.6972,-2.25267 -13.63747,-5.63017c-1.86948,-2.14748 -1.59694,-6.65179 -2.60183,-9.47805c11.87651,-0.48476 23.67223,-0.96951 35.54873,-1.45427z" data-paper-data="{&quot;index&quot;:null}" fill="#6a0003" stroke="none" stroke-width="1" stroke-linecap="butt" stroke-miterlimit="10"/><path d="M220.59093,210.40577c2.34298,-0.08079 4.76676,-0.24238 7.19054,-0.32317c2.58536,7.27133 8.07926,12.28047 16.23931,15.10821c-0.62944,0.77754 -0.60203,2.26284 -1.12965,3.24399c-0.62369,1.15979 -1.7822,1.8559 -2.26364,3.30021c-5.57469,-0.80793 -10.34145,-3.2317 -14.21949,-7.43292c-3.63567,-3.87804 -5.57469,-8.48322 -5.81707,-13.89632z" data-paper-data="{&quot;index&quot;:null}" fill="#8c0003" stroke="none" stroke-width="1" stroke-linecap="butt" stroke-miterlimit="10"/><path d="M243.49563,224.88784c0.97495,-1.19382 2.47636,-2.34461 3.69751,-3.04842c3.73742,-2.15406 8.83561,-1.50822 14.92518,0.92761c-0.08079,0.16159 -0.16159,0.32317 -0.24238,0.48476c-3.15091,5.65548 -8.7458,9.16996 -16.58268,9.33154c-1.61585,0 -3.2317,-0.38376 -4.76676,-0.54535c0.88872,-2.66616 1.51486,-5.4535 2.96913,-7.15014z" data-paper-data="{&quot;index&quot;:null}" fill="#f47171" stroke="none" stroke-width="1" stroke-linecap="butt" stroke-miterlimit="10"/><path d="M220.59093,210.40577c2.42378,-0.08079 4.76676,-0.24238 7.19054,-0.32317c11.79572,-0.48476 23.67223,-0.96951 35.54873,-1.45427M262.19911,222.76704c-0.08079,0.16159 -0.16159,0.32317 -0.24238,0.48476c-3.2317,5.65548 -8.7256,8.56401 -16.48169,8.7256c-1.69664,0.08079 -3.2317,0 -4.76676,-0.24238c-5.57469,-0.80793 -10.34145,-3.3125 -14.21949,-7.43292c-3.71646,-3.87804 -5.65548,-8.48322 -5.89786,-13.81553c-0.16159,-2.98933 0.16159,-6.14024 1.0503,-9.53352c4.92835,3.15091 11.23017,4.44359 18.90546,3.95884c8.16005,-0.56555 14.30029,-3.07012 18.42071,-7.67529c2.10061,4.12042 3.55487,7.91767 4.3628,11.39175c1.21189,5.4939 0.80793,10.17986 -1.1311,14.1387z" data-paper-data="{&quot;index&quot;:null}" fill="none" stroke="#000000" stroke-width="2" stroke-linecap="round" stroke-miterlimit="12"/><path d="M221.36666,188.3c-0.2,1.4 -0.4,1.4 -0.8,0.1c-0.5,-2.1 -0.5,-6.1 0.1,-11.7c0.8,-6.7 2.4,-10.1 4.7,-10.1c2.4,0 3.9,3.3 4.7,9.9c0.7,5.7 0.7,9.8 0,12.1c-0.5,1.6 -0.8,1.7 -1,0.5c0,-0.1 -0.1,-2.2 -0.2,-6.3c-0.3,-7.4 -1.5,-11.2 -3.5,-11.2c-1.7,0.1 -2.8,3.6 -3.5,10.7c-0.1,1.7 -0.2,3.7 -0.5,6z" fill="#000000" stroke="none" stroke-width="1" stroke-linecap="butt" stroke-miterlimit="10"/><path d="M251.69999,187.3c-0.2,1.4 -0.4,1.4 -0.8,0.1c-0.5,-2.1 -0.5,-6.1 0.1,-11.7c0.8,-6.7 2.4,-10.1 4.7,-10.1c2.4,0 3.9,3.3 4.7,9.9c0.7,5.7 0.7,9.8 0,12.1c-0.5,1.6 -0.8,1.7 -1,0.5c0,-0.1 -0.1,-2.2 -0.2,-6.3c-0.3,-7.4 -1.5,-11.2 -3.5,-11.2c-1.7,0.1 -2.8,3.6 -3.5,10.7c-0.1,1.7 -0.2,3.7 -0.5,6z" fill="#000000" stroke="none" stroke-width="1" stroke-linecap="butt" stroke-miterlimit="10"/></g></g></svg>